<svg width="512" height="512" viewBox="0 0 512 512" fill="none" xmlns="http://www.w3.org/2000/svg">
<g filter="url(#filter0_i_15_2)">
<path d="M255.655 109.388C254.277 113.768 244.67 139.964 242.498 145.299C241.078 148.768 235.815 160.088 230.844 170.453C210.586 212.523 206.033 227.312 206.117 251.339C206.2 267.82 208.665 282.653 213.97 298.787C218.648 312.882 224.579 324.592 232.265 334.827C234.562 337.863 243.375 347.405 243.918 347.405C244.085 347.405 243.166 345.713 241.913 343.588C229.424 322.987 222.449 295.404 222.449 266.736C222.449 244.313 224.704 234.121 234.645 212.046C238.154 204.282 255.864 169.586 256.365 169.586C256.658 169.586 269.565 194.177 274.201 203.632C287.191 230.088 290.324 242.275 290.324 266.302C290.324 277.925 289.99 282.219 288.277 293.192C285.228 312.535 279.38 329.449 270.985 343.328C269.648 345.583 268.687 347.405 268.854 347.405C269.397 347.405 278.587 337.43 280.675 334.567C296.923 312.448 306.489 281.785 306.614 251.339C306.697 227.355 302.228 212.783 281.636 169.803C271.194 147.988 269.565 144.258 264.302 129.468C257.326 109.865 256.658 108 256.365 108C256.198 108 255.906 108.651 255.655 109.388Z" fill="#009916"/>
<path d="M179.092 122.616C176.962 132.548 175.166 139.357 171.783 149.983C166.311 167.461 164.891 174.184 164.891 183.291C164.891 190.708 166.144 196.91 168.9 203.285L169.986 205.801L170.989 200.9C173.119 190.144 175.208 183.768 181.515 168.372C184.982 159.958 189.117 148.335 189.117 146.947C189.117 146.643 189.326 145.646 189.576 144.735L189.994 143.087L192.166 144.952C198.097 149.983 206.201 158.96 211.505 166.29C212.967 168.328 214.011 169.456 214.095 169.066C214.346 167.808 212.549 160.565 210.879 155.925C207.203 145.776 199.852 134.63 192.333 127.821C189.284 125.088 180.763 118.409 180.304 118.409C180.136 118.409 179.593 120.317 179.092 122.616Z" fill="#009916"/>
<path d="M326.789 122.573C312.253 133.806 302.521 148.899 299.137 165.379C298.135 170.41 298.302 170.454 301.643 165.857C306.906 158.527 314.258 150.373 320.565 144.952L322.737 143.087L323.155 144.952C324.324 149.809 328.083 160.695 331.55 169.153C333.681 174.27 336.27 180.906 337.273 183.899C339.069 189.19 341.617 199.122 342.201 203.155C342.369 204.239 342.661 205.15 342.828 205.15C343.162 205.15 345.251 200.249 346.128 197.3C347.966 191.272 348.342 181.036 347.005 172.752C345.919 166.247 345.251 163.688 340.948 149.853C337.44 138.62 335.978 133.199 333.848 123.484C333.221 120.708 332.595 118.409 332.469 118.409C332.302 118.409 329.754 120.274 326.789 122.573Z" fill="#009916"/>
<path d="M79.5975 186.804C76.1725 186.891 73.4157 187.064 73.4157 187.151C73.4157 187.281 74.9611 190.621 76.799 194.611C84.6099 211.395 85.8629 214.344 94.0915 235.943C105.912 267.04 113.64 282.523 124.917 298.179C147.097 328.842 180.763 349.66 221.906 358.204C227.127 359.288 236.233 360.893 237.11 360.85C237.235 360.85 232.473 358.248 226.5 355.081C194.213 337.907 176.711 325.503 160.254 308.111C143.63 290.503 133.564 273.372 118.61 237.244C112.261 221.934 109.839 216.209 107.499 211.265C106.664 209.487 106.079 207.969 106.121 207.882C106.413 207.622 116.146 209.097 120.991 210.138C147.974 216.079 171.741 230.738 190.37 252.901C194.714 258.105 194.714 258.105 193.503 255.243C187.404 240.714 175.458 224.71 163.22 214.518C145.551 199.859 123.414 190.361 100.148 187.411C95.5952 186.848 87.4084 186.587 79.5975 186.804Z" fill="#009916"/>
<path d="M419.057 186.804C408.991 187.411 396 190.187 385.85 193.787C356.152 204.369 331.801 226.661 319.771 254.158L318.184 257.845L320.147 255.459C323.865 250.949 333.43 241.06 337.607 237.417C354.147 222.932 375.617 212.74 397.379 209.096C403.811 208.012 406.735 207.665 406.735 207.969C406.735 208.099 406.025 209.704 405.106 211.569C403.602 214.691 401.43 219.809 390.863 245.051C377.371 277.231 365.676 295.577 347.255 313.532C332.469 327.888 315.344 339.598 287.066 354.648C274.326 361.457 274.493 361.153 284.142 359.505C303.398 356.166 320.941 350.311 337.147 341.81C362.794 328.322 382.3 309.456 397.086 283.867C404.605 270.899 409.408 260.143 420.101 232.343C427.16 213.954 429.959 207.318 435.598 195.521C437.728 191.054 439.399 187.324 439.273 187.238C439.023 186.978 421.647 186.631 419.057 186.804Z" fill="#009916"/>
<path d="M23.1253 239.715L21.5381 239.889L21.7469 251.252C21.9557 262.875 22.3317 266.301 24.1278 273.197C28.5553 290.068 38.6217 303.557 55.1624 314.746C58.9216 317.305 67.4843 322.249 68.1109 322.249C68.278 322.249 66.6907 320.167 64.644 317.565C52.155 302.125 42.6733 284.517 39.1647 270.378C38.0369 265.954 37.2851 258.408 37.661 255.762L37.9534 253.724H42.2139C47.1427 253.724 55.7472 254.635 63.3074 255.893C68.445 256.76 80.0987 259.319 82.9808 260.186C83.7744 260.446 84.4845 260.577 84.568 260.49C84.9022 260.143 78.9291 255.242 75.0028 252.553C65.3959 246.004 53.6169 241.624 41.3367 240.019C36.9092 239.455 27.1351 239.282 23.1253 239.715Z" fill="#009916"/>
<path d="M470.851 240.062C459.657 241.58 447.418 246.047 438.605 251.859C435.639 253.767 429.792 258.451 428.664 259.796L427.829 260.793L428.664 260.533C439.023 257.194 460.325 253.767 470.517 253.724H474.736L475.028 255.893C475.195 257.064 475.195 259.536 475.028 261.401C473.566 278.185 463.124 299.306 445.789 320.384C444.954 321.425 444.369 322.249 444.495 322.249C445.038 322.249 449.925 319.56 454.269 316.828C467.969 308.414 478.411 297.311 484.175 285.168C489.355 274.238 491.109 264.827 491.109 248.042V239.976L488.937 239.672C485.387 239.238 475.362 239.455 470.851 240.062Z" fill="#009916"/>
<path d="M109.672 322.249C99.3545 323.247 91.8778 326.023 75.6295 334.957C57.3763 345.062 46.934 348.445 23.2925 351.958C17.4448 352.826 11.1376 353.78 9.29978 354.083L6 354.604L17.8625 360.155C33.4842 367.485 37.87 369.783 48.2706 376.115C70.9513 389.907 80.1823 394.635 93.0473 398.972C125.168 409.771 157.163 405.998 189.576 387.565C198.014 382.751 210.336 373.99 216.685 368.222L218.146 366.878L216.476 367.615C188.24 379.715 170.822 385.18 152.777 387.522C130.64 390.428 109.212 386.958 87.6173 376.983C80.8089 373.86 66.5238 366.227 57.6269 360.979L55.8726 359.938L61.8038 356.816C69.3223 352.869 74.0005 349.659 84.4011 341.376C93.6321 333.959 98.1432 330.88 103.698 328.148C107.374 326.326 114.767 323.55 117.691 322.9C118.944 322.596 119.028 322.51 118.318 322.206C117.315 321.816 114.559 321.816 109.672 322.249Z" fill="#009916"/>
<path d="M394.455 322.163C393.87 322.424 394.33 322.727 396.543 323.334C407.403 326.327 415.59 330.967 428.873 341.767C437.895 349.053 443.868 353.13 450.885 356.773C456.691 359.809 456.858 359.939 455.939 360.546C453.642 362.064 434.512 372.473 430.126 374.641C402.725 388.043 380.128 391.382 351.432 386.178C338.693 383.879 321.442 378.328 303.356 370.608C294.668 366.922 294.543 366.835 295.211 367.442C329.002 397.064 367.639 409.902 403.018 403.309C422.106 399.753 435.389 393.898 464.46 376.116C469.264 373.21 475.028 369.871 477.283 368.656C480.75 366.878 502.345 356.556 505.728 355.125C506.94 354.604 506.898 354.561 489.438 351.959C465.839 348.446 455.229 344.976 437.06 334.958C423.109 327.238 416.133 324.375 407.988 322.944C403.561 322.163 395.499 321.73 394.455 322.163Z" fill="#009916"/>
</g>
<defs>
<filter id="filter0_i_15_2" x="6" y="108" width="500.176" height="301" filterUnits="userSpaceOnUse" color-interpolation-filters="sRGB">
<feFlood flood-opacity="0" result="BackgroundImageFix"/>
<feBlend mode="normal" in="SourceGraphic" in2="BackgroundImageFix" result="shape"/>
<feColorMatrix in="SourceAlpha" type="matrix" values="0 0 0 0 0 0 0 0 0 0 0 0 0 0 0 0 0 0 127 0" result="hardAlpha"/>
<feOffset dy="4"/>
<feGaussianBlur stdDeviation="2"/>
<feComposite in2="hardAlpha" operator="arithmetic" k2="-1" k3="1"/>
<feColorMatrix type="matrix" values="0 0 0 0 0 0 0 0 0 0 0 0 0 0 0 0 0 0 0.3 0"/>
<feBlend mode="normal" in2="shape" result="effect1_innerShadow_15_2"/>
</filter>
</defs>
</svg>
