<svg width="501" height="297" viewBox="0 0 501 297" fill="none" xmlns="http://www.w3.org/2000/svg">
<g filter="url(#filter0_i_8_4)">
<path d="M249.655 1.38792C248.277 5.76834 238.67 31.9641 236.498 37.2986C235.078 40.7683 229.815 52.088 224.844 62.4535C204.586 104.523 200.033 119.312 200.117 143.339C200.2 159.82 202.665 174.653 207.97 190.787C212.648 204.882 218.579 216.592 226.265 226.827C228.562 229.863 237.375 239.405 237.918 239.405C238.085 239.405 237.166 237.713 235.913 235.588C223.424 214.987 216.449 187.404 216.449 158.736C216.449 136.313 218.704 126.121 228.645 104.046C232.154 96.2824 249.864 61.5861 250.365 61.5861C250.658 61.5861 263.565 86.1771 268.201 95.6319C281.191 122.088 284.324 134.275 284.324 158.302C284.324 169.925 283.99 174.219 282.277 185.192C279.228 204.535 273.38 221.449 264.985 235.328C263.648 237.583 262.687 239.405 262.854 239.405C263.397 239.405 272.587 229.43 274.675 226.567C290.923 204.448 300.489 173.785 300.614 143.339C300.697 119.355 296.228 104.783 275.636 61.8029C265.194 39.9876 263.565 36.2578 258.302 21.4684C251.326 1.86501 250.658 7.62939e-05 250.365 7.62939e-05C250.198 7.62939e-05 249.906 0.650635 249.655 1.38792Z" fill="#009916"/>
<path d="M173.092 14.6161C170.962 24.5479 169.166 31.3571 165.783 41.9828C160.311 59.4611 158.891 66.1835 158.891 75.2913C158.891 82.7076 160.144 88.9096 162.9 95.2851L163.986 97.8005L164.989 92.8997C167.119 82.1438 169.208 75.7684 175.515 60.3719C178.982 51.958 183.117 40.3347 183.117 38.9469C183.117 38.6433 183.326 37.6458 183.576 36.735L183.994 35.0869L186.166 36.9518C192.097 41.9828 200.201 50.9605 205.505 58.2901C206.967 60.3285 208.011 61.4561 208.095 61.0658C208.346 59.8081 206.549 52.5652 204.879 47.9246C201.203 37.7759 193.852 26.6297 186.333 19.8205C183.284 17.0882 174.763 10.4091 174.304 10.4091C174.136 10.4091 173.593 12.3174 173.092 14.6161Z" fill="#009916"/>
<path d="M320.789 14.5729C306.253 25.8058 296.521 40.8987 293.137 57.3795C292.135 62.4104 292.302 62.4538 295.643 57.8565C300.906 50.5269 308.258 42.3733 314.565 36.952L316.737 35.0871L317.155 36.952C318.324 41.8095 322.083 52.6955 325.55 61.1527C327.681 66.2704 330.27 72.9061 331.273 75.8986C333.069 81.1898 335.617 91.1217 336.201 95.1551C336.369 96.2394 336.661 97.1501 336.828 97.1501C337.162 97.1501 339.251 92.2493 340.128 89.3001C341.966 83.2716 342.342 73.0362 341.005 64.7524C339.919 58.2469 339.251 55.688 334.948 41.8529C331.44 30.6199 329.978 25.1986 327.848 15.4836C327.221 12.7079 326.595 10.4093 326.469 10.4093C326.302 10.4093 323.754 12.2742 320.789 14.5729Z" fill="#009916"/>
<path d="M73.5975 78.8043C70.1725 78.891 67.4157 79.0645 67.4157 79.1512C67.4157 79.2813 68.9611 82.6208 70.799 86.6109C78.6099 103.395 79.8629 106.344 88.0915 127.943C99.9122 159.04 107.64 174.523 118.917 190.179C141.097 220.842 174.763 241.66 215.906 250.204C221.127 251.288 230.233 252.893 231.11 252.85C231.235 252.85 226.473 250.248 220.5 247.081C188.213 229.907 170.711 217.503 154.254 200.111C137.63 182.503 127.564 165.372 112.61 129.244C106.261 113.934 103.839 108.209 101.499 103.265C100.664 101.487 100.079 99.969 100.121 99.8823C100.413 99.6221 110.146 101.097 114.991 102.138C141.974 108.079 165.741 122.738 184.37 144.901C188.714 150.105 188.714 150.105 187.503 147.243C181.404 132.714 169.458 116.71 157.22 106.518C139.551 91.8587 117.414 82.3606 94.1481 79.4114C89.5952 78.8476 81.4084 78.5874 73.5975 78.8043Z" fill="#009916"/>
<path d="M413.057 78.804C402.991 79.4112 390 82.1869 379.85 85.7867C350.152 96.3691 325.801 118.661 313.771 146.158L312.184 149.845L314.147 147.459C317.865 142.949 327.43 133.06 331.607 129.417C348.147 114.932 369.617 104.74 391.379 101.096C397.811 100.012 400.735 99.6652 400.735 99.9688C400.735 100.099 400.025 101.704 399.106 103.569C397.602 106.691 395.43 111.809 384.863 137.051C371.371 169.231 359.676 187.577 341.256 205.532C326.469 219.888 309.344 231.598 281.066 246.648C268.326 253.457 268.493 253.153 278.142 251.505C297.398 248.166 314.941 242.311 331.147 233.81C356.794 220.322 376.3 201.456 391.086 175.867C398.605 162.899 403.408 152.143 414.101 124.343C421.16 105.954 423.959 99.3183 429.598 87.5215C431.728 83.0543 433.399 79.3245 433.273 79.2377C433.023 78.9775 415.647 78.6306 413.057 78.804Z" fill="#009916"/>
<path d="M17.1253 131.715L15.5381 131.889L15.7469 143.252C15.9557 154.875 16.3317 158.301 18.1278 165.197C22.5553 182.068 32.6217 195.557 49.1624 206.746C52.9216 209.305 61.4843 214.249 62.1109 214.249C62.278 214.249 60.6907 212.167 58.644 209.565C46.155 194.125 36.6733 176.517 33.1647 162.378C32.0369 157.954 31.2851 150.408 31.661 147.762L31.9534 145.724H36.2139C41.1427 145.724 49.7472 146.635 57.3074 147.893C62.445 148.76 74.0987 151.319 76.9808 152.186C77.7744 152.446 78.4845 152.577 78.568 152.49C78.9022 152.143 72.9291 147.242 69.0028 144.553C59.3959 138.004 47.6169 133.624 35.3367 132.019C30.9092 131.455 21.1351 131.282 17.1253 131.715Z" fill="#009916"/>
<path d="M464.851 132.062C453.657 133.58 441.418 138.047 432.605 143.859C429.639 145.767 423.792 150.451 422.664 151.796L421.829 152.793L422.664 152.533C433.023 149.194 454.325 145.767 464.517 145.724H468.736L469.028 147.893C469.195 149.064 469.195 151.536 469.028 153.401C467.566 170.185 457.124 191.306 439.789 212.384C438.954 213.425 438.369 214.249 438.495 214.249C439.038 214.249 443.925 211.56 448.269 208.828C461.969 200.414 472.411 189.311 478.175 177.168C483.355 166.238 485.109 156.827 485.109 140.042V131.976L482.937 131.672C479.387 131.238 469.362 131.455 464.851 132.062Z" fill="#009916"/>
<path d="M103.672 214.249C93.3545 215.247 85.8778 218.023 69.6295 226.957C51.3763 237.062 40.934 240.445 17.2925 243.958C11.4448 244.826 5.13763 245.78 3.29978 246.083L0 246.604L11.8625 252.155C27.4842 259.485 31.87 261.783 42.2706 268.115C64.9513 281.907 74.1824 286.635 87.0473 290.972C119.168 301.771 151.163 297.998 183.576 279.565C192.014 274.751 204.336 265.99 210.685 260.222L212.146 258.878L210.476 259.615C182.24 271.715 164.822 277.18 146.777 279.522C124.64 282.428 103.212 278.958 81.6173 268.983C74.8089 265.86 60.5238 258.227 51.6269 252.979L49.8726 251.938L55.8038 248.816C63.3223 244.869 68.0005 241.659 78.4011 233.376C87.6321 225.959 92.1432 222.88 97.6985 220.148C101.374 218.326 108.767 215.55 111.691 214.9C112.944 214.596 113.028 214.51 112.318 214.206C111.315 213.816 108.559 213.816 103.672 214.249Z" fill="#009916"/>
<path d="M388.455 214.163C387.87 214.424 388.33 214.727 390.543 215.334C401.403 218.327 409.59 222.967 422.873 233.767C431.895 241.053 437.868 245.13 444.885 248.773C450.691 251.809 450.858 251.939 449.939 252.546C447.642 254.064 428.512 264.473 424.126 266.641C396.725 280.043 374.128 283.382 345.432 278.178C332.693 275.879 315.442 270.328 297.356 262.608C288.668 258.922 288.543 258.835 289.211 259.442C323.002 289.064 361.639 301.902 397.018 295.309C416.106 291.753 429.389 285.898 458.46 268.116C463.264 265.21 469.028 261.871 471.283 260.656C474.75 258.878 496.345 248.556 499.728 247.125C500.94 246.604 500.898 246.561 483.438 243.959C459.839 240.446 449.229 236.976 431.06 226.958C417.109 219.238 410.133 216.375 401.988 214.944C397.561 214.163 389.499 213.73 388.455 214.163Z" fill="#009916"/>
</g>
<defs>
<filter id="filter0_i_8_4" x="0" y="0" width="500.176" height="301" filterUnits="userSpaceOnUse" color-interpolation-filters="sRGB">
<feFlood flood-opacity="0" result="BackgroundImageFix"/>
<feBlend mode="normal" in="SourceGraphic" in2="BackgroundImageFix" result="shape"/>
<feColorMatrix in="SourceAlpha" type="matrix" values="0 0 0 0 0 0 0 0 0 0 0 0 0 0 0 0 0 0 127 0" result="hardAlpha"/>
<feOffset dy="4"/>
<feGaussianBlur stdDeviation="2"/>
<feComposite in2="hardAlpha" operator="arithmetic" k2="-1" k3="1"/>
<feColorMatrix type="matrix" values="0 0 0 0 0 0 0 0 0 0 0 0 0 0 0 0 0 0 0.3 0"/>
<feBlend mode="normal" in2="shape" result="effect1_innerShadow_8_4"/>
</filter>
</defs>
</svg>
